{
	"patcher" : 	{
		"fileversion" : 1,
		"appversion" : 		{
			"major" : 7,
			"minor" : 3,
			"revision" : 3,
			"architecture" : "x64",
			"modernui" : 1
		}
,
		"rect" : [ 383.0, 413.0, 333.0, 266.0 ],
		"bgcolor" : [ 0.0, 0.521569, 0.819608, 1.0 ],
		"editing_bgcolor" : [ 0.317647, 0.654902, 0.976471, 1.0 ],
		"bglocked" : 0,
		"openinpresentation" : 1,
		"default_fontsize" : 12.0,
		"default_fontface" : 2,
		"default_fontname" : "Helvetica Neue",
		"gridonopen" : 1,
		"gridsize" : [ 15.0, 15.0 ],
		"gridsnaponopen" : 1,
		"objectsnaponopen" : 1,
		"statusbarvisible" : 2,
		"toolbarvisible" : 0,
		"lefttoolbarpinned" : 0,
		"toptoolbarpinned" : 0,
		"righttoolbarpinned" : 0,
		"bottomtoolbarpinned" : 0,
		"toolbars_unpinned_last_save" : 0,
		"tallnewobj" : 0,
		"boxanimatetime" : 200,
		"enablehscroll" : 0,
		"enablevscroll" : 0,
		"devicewidth" : 0.0,
		"description" : "",
		"digest" : "",
		"tags" : "",
		"style" : "",
		"subpatcher_template" : "",
		"boxes" : [ 			{
				"box" : 				{
					"id" : "obj-44",
					"linecount" : 2,
					"maxclass" : "comment",
					"numinlets" : 1,
					"numoutlets" : 0,
					"patching_rect" : [ 10.5, 324.5, 150.0, 35.0 ],
					"presentation" : 1,
					"presentation_rect" : [ 12.5, 232.729156, 176.0, 21.0 ],
					"style" : "",
					"text" : "Comparative Irrelevance 2017"
				}

			}
, 			{
				"box" : 				{
					"fontface" : 2,
					"id" : "obj-39",
					"maxclass" : "comment",
					"numinlets" : 1,
					"numoutlets" : 0,
					"patching_rect" : [ 10.5, 29.0, 147.0, 21.0 ],
					"presentation" : 1,
					"presentation_rect" : [ 12.5, 35.926331, 88.0, 21.0 ],
					"style" : "",
					"text" : "Randomizer!",
					"textcolor" : [ 1.0, 1.0, 1.0, 1.0 ]
				}

			}
, 			{
				"box" : 				{
					"autofit" : 1,
					"data" : [ 5135, "png", "IBkSG0fBZn....PCIgDQRA..B3G...fJHX....PKPYEp....DLmPIQEBHf.B7g.YHB..SXbRDEDU3wY6clGskUTcF+a+8.aglFYPFDT6lFTCHyMwFLDSSTCStDQHKAhBtbJQgnBXDvDDhyJnffwIhHF0HnHHPDEDBBhZ.klQEjvrHCBRyT2MMx9am+3dXYmG268T266dOCuW8asd+w6b1047Umg5T2p10daQDGijNRR9rQCCI8T.Xo.3tAvMRxqE.WfY1uXpdriH1P.rORZQ.XqAvbI4rlpG2AEIE.39.vMAf+GRdNlYWwT83FQ7B.vdJoE.fsB.yG.yljq9T8XOpQR2JI2MyraIE6iHVG.7ZjzBAvKE.uX.rFjbNiScNLHoGfj6uY1EWGm+HBC.KD.uZIs0.XyAvFiNOKrp0gl5EEuuedjbeMyzSu8HhmsjNe.rHRZ0mBmZT7t9Olj6gY1STl8QDDctusm.3OG.aJIWuwsN6FR5wAvcBfESxKB.eOyrGMkxFQ7OKo+kl32XFDjzcSx8xLawq71iH1OI8EH4Z0kx7fj7.My9AoddhHlM.1KIsq.X6.v7py11jziBf6..WEI+Q.3bMyV5T83FQLK.rGRZ2AvB.vlPx0dpdbGFjz8CfaAc9F74AfKyLKpCs7zDQbnR5izsuYKoeKIe8lY+xtTtsPRmKI2ztTtmfjeB3tu7nkg690EQrWC4EyMxc+q5t+j0c8nW3teUQD+MCY8a6c2Oe2cU20iAA28+0Dpayq3d2Jpa8NH3teVCy8xoBQDVDwA4teS0c8eH3kNo5xhpaAMh4Ul38t6ntEZuvc+wb2+3QDk1gD28kT25cTg69I2k52UVRY99I9N6pEQbLt6Ob0TaFNJz2wDQrZoTu5R8bUiHNb28eesVQ5CEsa95Gl52nB286qDM9E6Q49DkTtky13uBijaE.9dt6ekHhUI0xEQrqR55I4atoMZGqLjb6AvE3texQDSjZ4hHNRIckjb2agiLxyoe6Lh3uUR2Pw8tmUUIpQDqSUdxhHVKIcg.3zH4KoJO2iHl7nZ8LFIkVN8ryRQDyQRmK5buatUnlFHH4ZPxiTRWSDwVVhsSmt+0s6cqeIkY1kcPiH1LI8KAvwRx91VXcSg9NVIcUQDa1fT1Hhmmjtb.b700nWmBEsa9cc2+lQD0x2aH4FThIa3.t8m939r4vIolAj7sHot1q2ISDwtIoyijU5GgmJPxCQRe0nyz00WhH9f.3iSxj6nXagHh8URmAIKsAzY5DQrZR5GQxWUcqkLCFQDqtjt.R9ZpasjJjb9R5mDQrE0sVZqDQLWIcojrUcMjjatjt7HhMIE6iHVOI8SH4KabqsQEj7.jz4NHCvTafVcG+..H4aMhXO5mMQDu.Ic5M4Q4qWPx2D.d28ylHhWtjN1pQQUKQDOeIcpsvQvrVPReTRtC0sNxL3HoSfj6TcqiAERtVR5riHZb9ObSmHhUQRmII2n5VKCCjbCjzYFQz2usFQXR5azM+NqoCI2UIUpqH0ln02wO..Iczkr+OYSe3y6GR5iFQzyg8svAPmV1wHIcTMwEsw.hJ2joNQDaL.Njp3bMlwmz+WqNYcUPDwNPx2QcqigER9hAv6qa6qXQsjo671Z6+PsBWS5uuDy1GRNT9sdCgiXPmV6lLSK53GI2wdMbyQDyE.6WEKoQJjb1R5f619hHlOI2kpVSiZH4sN4sU3aEGPMHmQM+uUz44M1FGU6UFII.L4mEppqeUE29j2fjd+0gPFkHo2aDQ27Y7atxEy3i6XTcfhH3zg66..R5eJ5rJz609a00SRNgj55OroMRoyasjtU.b4UfVVYVSzwAu2tAvut9KQWZPE.GvfLZXE02aF.+A7LG4gQEqI.d9.XaGfOT+FAvGrKa+uN0SpjdR.b8nS3w4QPCYjTH4MCfuTW101mpigWLpB+J.ba.3w.vSM5T3Th6ijGeUbhjzqjLseKmjdH.bM.XI.3wGm5Z.3ORx+Kyr6Yk2nY1uNh3MKoWA.Fk9v5qsegOBIsD.btivymSxK0L6ZW4MFQLaIkbTJPRKE.WE.te.rrQn9VYdV.XcAv1jfSlC.fhqk6N.N6Is8CPRuc.LTqBzdv1RxsoeFHouKFsOaeWj73FgGuERxj7ONfNgFF.b0ny2lVwHTGSlYg+z89xV3J..fjuP.ry.3xl79hHdQnS3HJIJdu6pAvC.fRC6QCIqA5DVq1tAHLtseQDGhYVS4aKCO8eQMGg69oUiZa0iHNB2cOAc9w61wvc+hKqrEk+BiIEFIpf52bhHNZ28mJEMFcYnlc2OgDqeepHhZIFIMrDQ7VSrtcFQm3V3LZb2umDtV8.QDugX.Vs3SWwc+ZJ4Z00TE5HhXOR747GNh3sDU7pLLhXWb2ugD03WnJzj69wlfblWEok9F1cb2+wcqbQDGchWSukHhcKRXQ9MpIhX2b2u4D04GpGGi2Uhk+2EQr2QeF4vwP8a0iNgVlmHEMFQriUn1J6502qakyc+zJqrM5o50LaYlYeR.z0N0MI50RXd6JqfR5rI4tal8qFHANEwL6wLy9vjL0oyra+B2MtrBIoO+DSLw62LaIClBqcRotcIEAH4eaUHnlLj74kfM6iY1YXlMtFM6LCN8cjq..jzxH4hLyNUyrmrJD0SiY1kPxcRRoz9Xos2loCRZ6SvlaijKzL6GVGATXyreHIWnjRI352068RJkuAe+E0yydkCd6iaJ5iwmlju1B2LoLlV77citieOMjLkP1xyv2RhHlSYQB7hHY86rN+PnY12VRoDjOmeW1Vo+5eRdBCtppejToSMDIOoprghlJQmn8eeQRK1L6YLULYpWjz7RvrOiYVkLBjcCyrGij+iIX57F2ZYZDuvxLfjuWyr+PUHldgY1RH46IASmWO1dJ0yOfY1cOPBaDhY1EBfudY1k36pMdZEc7yL6tK7qk9Q290PqaBG9KxL69GBYMRgjeixrQRC7paURqH0TgVCjT7InaXrqh1Ao3qnU5HZmIYJscJRV5GkF2XlcIR5dKwrVk6jTyz266R5gAPRY8iJfefjJqCn856SO29UnhT03oOTpZDRJeCFkTWZKzJ53WAk4PkCqS7d0CY4F0bskaBVyg33NtbN1lBseGss5nsMU+yTnuKxNIsTyrlxJisusW1BypNMYt9lxrYTLMyk8MpdsP7Jyeh+MlYiqEozfPJ8EXZguQ2l53WYq7lgZT6H4CMLkaLv3Z37GkqjtlH4OzjNslrVSl+ezTZiBnYoko6zztV+fioiaSod1TzwXmVQG+hH17xxovjrsOMViEG1ljOqn8lNkRYTbK0w3mgvxSvl70p1IMhQ8of7hBZlKozFyvPi3465XwyTWzJ53mjNxR1e.fKohjSSiRGhbIcDUgPF0PxTpaGZTSIQ6lDlYqnvWY5IjbqhH1ypRSYxjISllGM5N9EQrYt6eMRdfkX5E1DVfF0D2YYFPxCrH19zsUEbSl6pLCJByDe+HhoEKy9oHkFRajz2Jh3fiHVipPPYxjISllEkl4N.vt0q.P4XjUCchgaabYYh.IIR1sLZwLBH4hSztCB.Gj69cCf6AiugsekwQmrnwiBfeKIud.bMlY2Thk+pRwHR9p.vhc2+CnSJUppxDEObw45dKb0fqCcpe00TWbU.nuYBfh7d7mSRmn69shN9sSUr.YVN.VJ.VRQlZ4WCfqvLab42PYxjISltPoc7qHc8jTJ6oNfjGsY1UV25nF4hkzSl5poijOezIcwUa3teaj7TAv+lY1C2GSuIIc6olViH45hzBgOiMjzC3t+0I4walUVnuXjBIOe.ruIZ6p.fWRwe0BRJb2uTR9YAv4LSxGaxjISl5hF8T81OJ7mo2mY1Gqt0RchY1CAfuUcqiAARNe.7QjzMEQrG8xNyrfje4JTZSYH45QxCSR2ZDwAWwm9uSBwZqFCjzH4h.vYKoKKxocuLYxjYrSqqieRJjzYRxs0L6SW25oI.I+fR5QpacLnPxMPRmWDwA0GyNII8apLQMhfjqF.9bt6U1OLwL6wI4QUUmuQIjbmkzOOpn7qZlLYxLSkT7wuFEjzjzeF.1oHhabp5OURZuc2m2nQcSIcLqx7mwdgY1cEQ7Fjz411BfpjjR5ThHt1tkRpLyVVDwdKoKijstnlNIOpHhq1L66TEmOyrSwceaI46pJNeiRH4FKoyJhXglY+w5VOMHVG28SrtEQAur5V.YxjYpQqqie..jbKAvoHo2dDwdalcOSgi0q..uhQm5pGLytfHhcQReSRNu5VOCBjbUkzI.fcoa62L6FiHVnj9OI4BqX4MkQRe5HhywLarDqFmLj7P.vcJoObK7GBrc.3sBfTxO2yHnXA4jRtRMSlLYJkV2T8txPxWlj9YQDstQBZbfY1OijaA.dORpUEPqI4hhH54BMvL61H4KG.6uj9oEwtwVAj7E.fWSUc9LyByrOEIeQR5jkTqJUsIo+g5VCYxjIyzUJcD+jz8CfTC+FiJLzY0YtYjruopMRNWI8U.vdUIJqgiY1xAvIAfSJhXS.vBjzVBf4hNIP8YCfUsBjxr.vFNfi93d.fd5OeESq+oCfSOhX8AvNBfsPRaF9S0s9lgWFQrp.X8.v7IYR4tQIsG.3rFqpZRXlcW.3cGQbn.XA.XKKdVXCPmqU8J2ZNpYN.XSH4ZmhwjbahH1noxH4mISlLY5NoLUu+vIlXh27XVGckHhYAfWmjNQRtg8xNR9ZiH9KLy9oUn7Z7Xlc6.31AvYVWZHhXijzgSxCqLakz1m5w0L62Cfys3uZgHhmC.d6R5CUrXN5GKnJzT2vLyAvUV7WsQwz0e7jbmSv7sGch2jYxjISlQHM5o50LaElYmAI2EI0Wm8VRuopRWYRGyr6YhIl3vkzGMAy23wtfFgXl8HlYGOIeaIX9L9PUhY1UPxcURWeBlO2wtfxjISlYfzn632SSQld37JwrWUUnkLCGj73kTYq.6jlJvFHeKIUV5kaNUhRZ3XlsLRdxIX5pO1ESlLYxLCjVQG+..H40Vx92zHh7GKZnTjgNJKuBaUgVF0TjwItt9YSaa00Nl4YD1dlLRZ1UgPxjISxTl6rjokPaJbt7nIXy5iN4p0joHjWbpCkhFsrl.nuctcZ.obOrsxCU2BnEQqZUFW2HoeWh9E4XmBezbepacLCg0otEvjHG8LllPapieoLZdOmA8fRxGxL6NFb4LZIhnpVgk0IqQcKfwHC7ydyfIesZv3oZBsQA.3t+30sFlAwVEQvoZRJXTPDgIosoDy5WdWOSChVyT8JoMOAyZkSU3LAhHlC.dg0sNFi7R62NkjWUBoEPouKSxUTEBISlZj9lWsI4ZAf8rhzRYr6jbcKwlGqRTRloLshN9EQrg.XuSvzkNt0Rlgl2IIKK9A1Ja3HhXWI4lUhY4QJA.QDSHoCNASW1XWLYxTuT1BBCR5DiHJqCWiUhHVaI8YSvz6XbqkLiFZ7c7KhXAR5BHYJN688O1ETlAhHhUOh3vjzGKAyuuwtfFgDQrJQD6uj91IX9L9XRWDwbkzYQxcLAy+cicAkISMBIWbB1LeIcEQD6VDQkOiVQD6ljthD9gs..W8XWPYFIjhO9syt6m13VHShYgNg+hMGcxNBkV.IcuSLwDSmW7.8jHhsQRuCzIaLzTXs.v5IoskjqdJ2CI4ML4sEQrwR5vPmL4RSg4.f0tnts1oT2.PkjB8hHdSRZQ.HoLJREvphNWuluj1BRl5GuZUobvLYFBtH.7gJyHRto.3GHoGzc+Z.vCBfwoqPLKzo81sA.qehsuARdQiQMkYDRoc7q3gtMsBzxTkKstEPcgj91j7EW25XDvEO4MHoSljoLM+MZphFEiH1V.7ejZC0MUjz8PxpNMQlISUyUHoaijyOEiI4yEMz3UqjtKRd40sNxjFs6uPrRPxuYcqg5hoCc5SR2B.5VJ2KoFEaxHokBfuSEbplWEbNpBNshXiXlLSawLSj73pacLJfjGWSX0GmIMlVzwOIsX.b90sNxL7PxiZ55G6KZTLGm+R.I8fj7yT25HSlJh+cI8KqaQLUn36ueo5VGYRmVeG+jziQxCJ+qMZuHoSwL6LqacLNPRWF.RYgsLiGI8Tj7MZl02vbQlLSWvL6oH49JoV4h+RR2OI2Wyr+XcqkLoSqtieEOzsqlYOiEEPl1AR5yPx2YcqiwAR5bH4dlaTrbjziPx8xL6BpasjISUhY1cRx+JI8qqasLHHoajj6rY1sW2ZIyfAkzST2hXPQRKWRedRtUlY+79XZJw0uGbToqoHKSR8cpNIYW0pjZcQL8hQB6ubhIl3vMy5WvMt0Ea+jzM.f2vDSLwqyLqJieest3XYw6xeIRtElYUs6ZTVpiqpd16QJY+Mo2u6qVqp1h5UagShp592uuj8W56klY2BI2A.brRprmGpUJz2wRxEXlcKITjxpOMlT3njJSKU18FIUV3oqWg+r9FVzjzSfHhiwce4QCE28G0c+db2+wt6mbDweWL.o2L28ur69S1ii8hiHZL4CQ28iyceE8Pq2TDQWWc0QDGg69xFa2DlB3tub28Gvc+W3teZQDu2HhWTpWShH1G28kTyUith69Jb2eH28qyc+ziH9.QDKXz8DwfQDwp4t+e6t607klth69i3te2EZ7jhH1+nFSUgQD6k69C0CstjHhWeEoicxc+d6gNdzHhCrJzQJDQr0t62UOz5xiHNpJRGaj6900Cc7jt6ewpPGEZY+5UaTt6OPDwtOfGuYGQb.t6esh1Vdz97Z0Xmh2auV28SM57N6.E1vhH16Rt97pGrq3iOh97szhm625JTKGp69R6iV1gdTtsvc+V5Q4VdDww7+AdNbQ6ZbUF2K.....IUjSD4pPfIH" ],
					"embed" : 1,
					"forceaspect" : 1,
					"id" : "obj-38",
					"maxclass" : "fpic",
					"numinlets" : 1,
					"numoutlets" : 1,
					"outlettype" : [ "jit_matrix" ],
					"patching_rect" : [ 10.5, 11.0, 151.904762, 10.0 ],
					"pic" : "/Users/hkn/Desktop/2-BSII-Logo.png",
					"presentation" : 1,
					"presentation_rect" : [ 12.5, 15.0, 287.5, 18.926332 ]
				}

			}
, 			{
				"box" : 				{
					"fontface" : 1,
					"id" : "obj-35",
					"maxclass" : "comment",
					"numinlets" : 1,
					"numoutlets" : 0,
					"patching_rect" : [ 10.5, 241.5, 158.0, 21.0 ],
					"presentation" : 1,
					"presentation_rect" : [ 12.5, 209.729156, 95.0, 21.0 ],
					"style" : "",
					"text" : "MIDI Device:",
					"textcolor" : [ 1.0, 1.0, 1.0, 1.0 ]
				}

			}
, 			{
				"box" : 				{
					"id" : "obj-30",
					"maxclass" : "newobj",
					"numinlets" : 2,
					"numoutlets" : 1,
					"outlettype" : [ "" ],
					"patcher" : 					{
						"fileversion" : 1,
						"appversion" : 						{
							"major" : 7,
							"minor" : 3,
							"revision" : 3,
							"architecture" : "x64",
							"modernui" : 1
						}
,
						"rect" : [ 84.0, 129.0, 640.0, 480.0 ],
						"bglocked" : 0,
						"openinpresentation" : 0,
						"default_fontsize" : 12.0,
						"default_fontface" : 0,
						"default_fontname" : "Arial",
						"gridonopen" : 1,
						"gridsize" : [ 15.0, 15.0 ],
						"gridsnaponopen" : 1,
						"objectsnaponopen" : 1,
						"statusbarvisible" : 2,
						"toolbarvisible" : 1,
						"lefttoolbarpinned" : 0,
						"toptoolbarpinned" : 0,
						"righttoolbarpinned" : 0,
						"bottomtoolbarpinned" : 0,
						"toolbars_unpinned_last_save" : 0,
						"tallnewobj" : 0,
						"boxanimatetime" : 200,
						"enablehscroll" : 1,
						"enablevscroll" : 1,
						"devicewidth" : 0.0,
						"description" : "",
						"digest" : "",
						"tags" : "",
						"style" : "",
						"subpatcher_template" : "",
						"boxes" : [ 							{
								"box" : 								{
									"id" : "obj-24",
									"maxclass" : "newobj",
									"numinlets" : 2,
									"numoutlets" : 1,
									"outlettype" : [ "" ],
									"patching_rect" : [ 166.444427, 408.0, 34.0, 22.0 ],
									"style" : "",
									"text" : "gate"
								}

							}
, 							{
								"box" : 								{
									"id" : "obj-25",
									"maxclass" : "newobj",
									"numinlets" : 2,
									"numoutlets" : 1,
									"outlettype" : [ "" ],
									"patching_rect" : [ 151.888885, 378.0, 34.0, 22.0 ],
									"style" : "",
									"text" : "gate"
								}

							}
, 							{
								"box" : 								{
									"id" : "obj-26",
									"maxclass" : "newobj",
									"numinlets" : 2,
									"numoutlets" : 1,
									"outlettype" : [ "" ],
									"patching_rect" : [ 137.333328, 348.0, 34.0, 22.0 ],
									"style" : "",
									"text" : "gate"
								}

							}
, 							{
								"box" : 								{
									"id" : "obj-21",
									"maxclass" : "newobj",
									"numinlets" : 2,
									"numoutlets" : 1,
									"outlettype" : [ "" ],
									"patching_rect" : [ 122.777786, 318.0, 34.0, 22.0 ],
									"style" : "",
									"text" : "gate"
								}

							}
, 							{
								"box" : 								{
									"id" : "obj-22",
									"maxclass" : "newobj",
									"numinlets" : 2,
									"numoutlets" : 1,
									"outlettype" : [ "" ],
									"patching_rect" : [ 108.222229, 288.0, 34.0, 22.0 ],
									"style" : "",
									"text" : "gate"
								}

							}
, 							{
								"box" : 								{
									"id" : "obj-23",
									"maxclass" : "newobj",
									"numinlets" : 2,
									"numoutlets" : 1,
									"outlettype" : [ "" ],
									"patching_rect" : [ 93.666672, 258.0, 34.0, 22.0 ],
									"style" : "",
									"text" : "gate"
								}

							}
, 							{
								"box" : 								{
									"id" : "obj-20",
									"maxclass" : "newobj",
									"numinlets" : 2,
									"numoutlets" : 1,
									"outlettype" : [ "" ],
									"patching_rect" : [ 79.111115, 228.0, 34.0, 22.0 ],
									"style" : "",
									"text" : "gate"
								}

							}
, 							{
								"box" : 								{
									"id" : "obj-19",
									"maxclass" : "newobj",
									"numinlets" : 2,
									"numoutlets" : 1,
									"outlettype" : [ "" ],
									"patching_rect" : [ 64.555557, 198.0, 34.0, 22.0 ],
									"style" : "",
									"text" : "gate"
								}

							}
, 							{
								"box" : 								{
									"id" : "obj-13",
									"maxclass" : "newobj",
									"numinlets" : 2,
									"numoutlets" : 1,
									"outlettype" : [ "" ],
									"patching_rect" : [ 50.0, 168.0, 34.0, 22.0 ],
									"style" : "",
									"text" : "gate"
								}

							}
, 							{
								"box" : 								{
									"id" : "obj-9",
									"linecount" : 3,
									"maxclass" : "newobj",
									"numinlets" : 10,
									"numoutlets" : 10,
									"outlettype" : [ "", "", "", "", "", "", "", "", "", "" ],
									"patching_rect" : [ 65.0, 100.0, 150.0, 49.0 ],
									"style" : "",
									"text" : "route oscillator mixer filter LFO envelope modulation arp distortion VCA"
								}

							}
, 							{
								"box" : 								{
									"id" : "obj-8",
									"maxclass" : "newobj",
									"numinlets" : 1,
									"numoutlets" : 9,
									"outlettype" : [ "int", "int", "int", "int", "int", "int", "int", "int", "int" ],
									"patching_rect" : [ 290.0, 168.0, 139.0, 22.0 ],
									"style" : "",
									"text" : "unpack 0 0 0 0 0 0 0 0 0"
								}

							}
, 							{
								"box" : 								{
									"comment" : "",
									"id" : "obj-27",
									"index" : 1,
									"maxclass" : "inlet",
									"numinlets" : 0,
									"numoutlets" : 1,
									"outlettype" : [ "" ],
									"patching_rect" : [ 65.0, 40.0, 30.0, 30.0 ],
									"style" : ""
								}

							}
, 							{
								"box" : 								{
									"comment" : "",
									"id" : "obj-28",
									"index" : 2,
									"maxclass" : "inlet",
									"numinlets" : 0,
									"numoutlets" : 1,
									"outlettype" : [ "" ],
									"patching_rect" : [ 290.0, 40.0, 30.0, 30.0 ],
									"style" : ""
								}

							}
, 							{
								"box" : 								{
									"comment" : "",
									"id" : "obj-29",
									"index" : 1,
									"maxclass" : "outlet",
									"numinlets" : 1,
									"numoutlets" : 0,
									"patching_rect" : [ 102.222229, 490.0, 30.0, 30.0 ],
									"style" : ""
								}

							}
 ],
						"lines" : [ 							{
								"patchline" : 								{
									"destination" : [ "obj-29", 0 ],
									"disabled" : 0,
									"hidden" : 0,
									"source" : [ "obj-13", 0 ]
								}

							}
, 							{
								"patchline" : 								{
									"destination" : [ "obj-29", 0 ],
									"disabled" : 0,
									"hidden" : 0,
									"source" : [ "obj-19", 0 ]
								}

							}
, 							{
								"patchline" : 								{
									"destination" : [ "obj-29", 0 ],
									"disabled" : 0,
									"hidden" : 0,
									"source" : [ "obj-20", 0 ]
								}

							}
, 							{
								"patchline" : 								{
									"destination" : [ "obj-29", 0 ],
									"disabled" : 0,
									"hidden" : 0,
									"source" : [ "obj-21", 0 ]
								}

							}
, 							{
								"patchline" : 								{
									"destination" : [ "obj-29", 0 ],
									"disabled" : 0,
									"hidden" : 0,
									"source" : [ "obj-22", 0 ]
								}

							}
, 							{
								"patchline" : 								{
									"destination" : [ "obj-29", 0 ],
									"disabled" : 0,
									"hidden" : 0,
									"source" : [ "obj-23", 0 ]
								}

							}
, 							{
								"patchline" : 								{
									"destination" : [ "obj-29", 0 ],
									"disabled" : 0,
									"hidden" : 0,
									"source" : [ "obj-24", 0 ]
								}

							}
, 							{
								"patchline" : 								{
									"destination" : [ "obj-29", 0 ],
									"disabled" : 0,
									"hidden" : 0,
									"source" : [ "obj-25", 0 ]
								}

							}
, 							{
								"patchline" : 								{
									"destination" : [ "obj-29", 0 ],
									"disabled" : 0,
									"hidden" : 0,
									"source" : [ "obj-26", 0 ]
								}

							}
, 							{
								"patchline" : 								{
									"destination" : [ "obj-9", 0 ],
									"disabled" : 0,
									"hidden" : 0,
									"source" : [ "obj-27", 0 ]
								}

							}
, 							{
								"patchline" : 								{
									"destination" : [ "obj-8", 0 ],
									"disabled" : 0,
									"hidden" : 0,
									"source" : [ "obj-28", 0 ]
								}

							}
, 							{
								"patchline" : 								{
									"destination" : [ "obj-13", 0 ],
									"disabled" : 0,
									"hidden" : 0,
									"source" : [ "obj-8", 0 ]
								}

							}
, 							{
								"patchline" : 								{
									"destination" : [ "obj-19", 0 ],
									"disabled" : 0,
									"hidden" : 0,
									"source" : [ "obj-8", 1 ]
								}

							}
, 							{
								"patchline" : 								{
									"destination" : [ "obj-20", 0 ],
									"disabled" : 0,
									"hidden" : 0,
									"source" : [ "obj-8", 2 ]
								}

							}
, 							{
								"patchline" : 								{
									"destination" : [ "obj-21", 0 ],
									"disabled" : 0,
									"hidden" : 0,
									"source" : [ "obj-8", 5 ]
								}

							}
, 							{
								"patchline" : 								{
									"destination" : [ "obj-22", 0 ],
									"disabled" : 0,
									"hidden" : 0,
									"source" : [ "obj-8", 4 ]
								}

							}
, 							{
								"patchline" : 								{
									"destination" : [ "obj-23", 0 ],
									"disabled" : 0,
									"hidden" : 0,
									"source" : [ "obj-8", 3 ]
								}

							}
, 							{
								"patchline" : 								{
									"destination" : [ "obj-24", 0 ],
									"disabled" : 0,
									"hidden" : 0,
									"source" : [ "obj-8", 8 ]
								}

							}
, 							{
								"patchline" : 								{
									"destination" : [ "obj-25", 0 ],
									"disabled" : 0,
									"hidden" : 0,
									"source" : [ "obj-8", 7 ]
								}

							}
, 							{
								"patchline" : 								{
									"destination" : [ "obj-26", 0 ],
									"disabled" : 0,
									"hidden" : 0,
									"source" : [ "obj-8", 6 ]
								}

							}
, 							{
								"patchline" : 								{
									"destination" : [ "obj-13", 1 ],
									"disabled" : 0,
									"hidden" : 0,
									"source" : [ "obj-9", 0 ]
								}

							}
, 							{
								"patchline" : 								{
									"destination" : [ "obj-19", 1 ],
									"disabled" : 0,
									"hidden" : 0,
									"source" : [ "obj-9", 1 ]
								}

							}
, 							{
								"patchline" : 								{
									"destination" : [ "obj-20", 1 ],
									"disabled" : 0,
									"hidden" : 0,
									"source" : [ "obj-9", 2 ]
								}

							}
, 							{
								"patchline" : 								{
									"destination" : [ "obj-21", 1 ],
									"disabled" : 0,
									"hidden" : 0,
									"source" : [ "obj-9", 5 ]
								}

							}
, 							{
								"patchline" : 								{
									"destination" : [ "obj-22", 1 ],
									"disabled" : 0,
									"hidden" : 0,
									"source" : [ "obj-9", 4 ]
								}

							}
, 							{
								"patchline" : 								{
									"destination" : [ "obj-23", 1 ],
									"disabled" : 0,
									"hidden" : 0,
									"source" : [ "obj-9", 3 ]
								}

							}
, 							{
								"patchline" : 								{
									"destination" : [ "obj-24", 1 ],
									"disabled" : 0,
									"hidden" : 0,
									"source" : [ "obj-9", 8 ]
								}

							}
, 							{
								"patchline" : 								{
									"destination" : [ "obj-25", 1 ],
									"disabled" : 0,
									"hidden" : 0,
									"source" : [ "obj-9", 7 ]
								}

							}
, 							{
								"patchline" : 								{
									"destination" : [ "obj-26", 1 ],
									"disabled" : 0,
									"hidden" : 0,
									"source" : [ "obj-9", 6 ]
								}

							}
 ]
					}
,
					"patching_rect" : [ 180.0, 120.0, 43.0, 23.0 ],
					"saved_object_attributes" : 					{
						"description" : "",
						"digest" : "",
						"globalpatchername" : "",
						"style" : "",
						"tags" : ""
					}
,
					"style" : "",
					"text" : "p filter"
				}

			}
, 			{
				"box" : 				{
					"bgcolor" : [ 0.311041, 0.314599, 0.318357, 0.6 ],
					"bgoncolor" : [ 0.239216, 0.254902, 0.278431, 1.0 ],
					"fontsize" : 18.0,
					"id" : "obj-7",
					"maxclass" : "textbutton",
					"numinlets" : 1,
					"numoutlets" : 3,
					"outlettype" : [ "", "", "int" ],
					"parameter_enable" : 0,
					"patching_rect" : [ 527.5, 30.0, 148.0, 146.0 ],
					"presentation" : 1,
					"presentation_rect" : [ 135.0, 60.0, 146.0, 146.0 ],
					"rounded" : 191.0,
					"style" : "",
					"text" : "RANDOMIZE!",
					"textcolor" : [ 1.0, 1.0, 1.0, 1.0 ],
					"textoncolor" : [ 1.0, 1.0, 1.0, 1.0 ],
					"textovercolor" : [ 1.0, 1.0, 1.0, 1.0 ]
				}

			}
, 			{
				"box" : 				{
					"fontface" : 0,
					"fontsize" : 13.585427,
					"id" : "obj-4",
					"linecount" : 9,
					"maxclass" : "comment",
					"numinlets" : 1,
					"numoutlets" : 0,
					"patching_rect" : [ 420.0, 27.5, 125.0, 149.0 ],
					"presentation" : 1,
					"presentation_linecount" : 9,
					"presentation_rect" : [ 29.5, 58.729164, 120.0, 149.0 ],
					"style" : "",
					"text" : "Oscillators\nMixer\nFilter\nLFOs\nEnvelopes\nModulation\nArp\nDistortion\nVCA",
					"textcolor" : [ 1.0, 1.0, 1.0, 1.0 ]
				}

			}
, 			{
				"box" : 				{
					"activecolor" : [ 1.0, 1.0, 1.0, 1.0 ],
					"annotation" : "",
					"bgcolor" : [ 0.290196, 0.309804, 0.301961, 0.0 ],
					"disabled" : [ 0, 0, 0, 0, 0, 0, 0, 0, 0 ],
					"hint" : "",
					"id" : "obj-2",
					"itemtype" : 1,
					"maxclass" : "radiogroup",
					"numinlets" : 1,
					"numoutlets" : 1,
					"outlettype" : [ "" ],
					"parameter_enable" : 0,
					"patching_rect" : [ 405.0, 30.0, 124.0, 146.0 ],
					"presentation" : 1,
					"presentation_rect" : [ 12.5, 60.0, 124.0, 146.0 ],
					"shape" : 1,
					"size" : 9,
					"style" : "",
					"values" : [ 0, 0, 0, 0, 0, 0, 0, 0, 0 ]
				}

			}
, 			{
				"box" : 				{
					"id" : "obj-53",
					"maxclass" : "newobj",
					"numinlets" : 3,
					"numoutlets" : 1,
					"outlettype" : [ "" ],
					"patching_rect" : [ 180.0, 216.5, 66.0, 23.0 ],
					"style" : "",
					"text" : "pack l 0 0"
				}

			}
, 			{
				"box" : 				{
					"id" : "obj-47",
					"maxclass" : "newobj",
					"numinlets" : 1,
					"numoutlets" : 4,
					"outlettype" : [ "", "int", "int", "int" ],
					"patching_rect" : [ 180.0, 156.5, 89.5, 23.0 ],
					"style" : "",
					"text" : "unpack l i i i"
				}

			}
, 			{
				"box" : 				{
					"id" : "obj-95",
					"maxclass" : "newobj",
					"numinlets" : 2,
					"numoutlets" : 1,
					"outlettype" : [ "int" ],
					"patcher" : 					{
						"fileversion" : 1,
						"appversion" : 						{
							"major" : 7,
							"minor" : 3,
							"revision" : 3,
							"architecture" : "x64",
							"modernui" : 1
						}
,
						"rect" : [ 59.0, 104.0, 640.0, 480.0 ],
						"bglocked" : 0,
						"openinpresentation" : 0,
						"default_fontsize" : 12.0,
						"default_fontface" : 0,
						"default_fontname" : "Arial",
						"gridonopen" : 1,
						"gridsize" : [ 15.0, 15.0 ],
						"gridsnaponopen" : 1,
						"objectsnaponopen" : 1,
						"statusbarvisible" : 2,
						"toolbarvisible" : 1,
						"lefttoolbarpinned" : 0,
						"toptoolbarpinned" : 0,
						"righttoolbarpinned" : 0,
						"bottomtoolbarpinned" : 0,
						"toolbars_unpinned_last_save" : 0,
						"tallnewobj" : 0,
						"boxanimatetime" : 200,
						"enablehscroll" : 1,
						"enablevscroll" : 1,
						"devicewidth" : 0.0,
						"description" : "",
						"digest" : "",
						"tags" : "",
						"style" : "",
						"subpatcher_template" : "",
						"boxes" : [ 							{
								"box" : 								{
									"id" : "obj-1",
									"maxclass" : "newobj",
									"numinlets" : 2,
									"numoutlets" : 1,
									"outlettype" : [ "int" ],
									"patching_rect" : [ 82.5, 195.0, 29.5, 22.0 ],
									"style" : "",
									"text" : "+ 1"
								}

							}
, 							{
								"box" : 								{
									"id" : "obj-87",
									"maxclass" : "newobj",
									"numinlets" : 2,
									"numoutlets" : 1,
									"outlettype" : [ "int" ],
									"patching_rect" : [ 50.5, 255.0, 29.5, 22.0 ],
									"style" : "",
									"text" : "+ 0"
								}

							}
, 							{
								"box" : 								{
									"id" : "obj-82",
									"maxclass" : "newobj",
									"numinlets" : 1,
									"numoutlets" : 2,
									"outlettype" : [ "bang", "int" ],
									"patching_rect" : [ 71.5, 160.0, 30.0, 22.0 ],
									"style" : "",
									"text" : "t b i"
								}

							}
, 							{
								"box" : 								{
									"id" : "obj-81",
									"maxclass" : "newobj",
									"numinlets" : 2,
									"numoutlets" : 1,
									"outlettype" : [ "int" ],
									"patching_rect" : [ 50.5, 225.0, 51.0, 22.0 ],
									"style" : "",
									"text" : "random"
								}

							}
, 							{
								"box" : 								{
									"id" : "obj-78",
									"maxclass" : "newobj",
									"numinlets" : 1,
									"numoutlets" : 2,
									"outlettype" : [ "bang", "int" ],
									"patching_rect" : [ 50.0, 100.0, 30.0, 22.0 ],
									"style" : "",
									"text" : "t b i"
								}

							}
, 							{
								"box" : 								{
									"id" : "obj-75",
									"maxclass" : "newobj",
									"numinlets" : 2,
									"numoutlets" : 1,
									"outlettype" : [ "int" ],
									"patching_rect" : [ 50.5, 130.0, 29.5, 22.0 ],
									"style" : "",
									"text" : "- 0"
								}

							}
, 							{
								"box" : 								{
									"comment" : "",
									"id" : "obj-92",
									"index" : 1,
									"maxclass" : "inlet",
									"numinlets" : 0,
									"numoutlets" : 1,
									"outlettype" : [ "int" ],
									"patching_rect" : [ 50.0, 40.0, 30.0, 30.0 ],
									"style" : ""
								}

							}
, 							{
								"box" : 								{
									"comment" : "",
									"id" : "obj-93",
									"index" : 2,
									"maxclass" : "inlet",
									"numinlets" : 0,
									"numoutlets" : 1,
									"outlettype" : [ "int" ],
									"patching_rect" : [ 85.0, 40.0, 30.0, 30.0 ],
									"style" : ""
								}

							}
, 							{
								"box" : 								{
									"comment" : "",
									"id" : "obj-94",
									"index" : 1,
									"maxclass" : "outlet",
									"numinlets" : 1,
									"numoutlets" : 0,
									"patching_rect" : [ 50.5, 285.0, 30.0, 30.0 ],
									"style" : ""
								}

							}
 ],
						"lines" : [ 							{
								"patchline" : 								{
									"destination" : [ "obj-81", 1 ],
									"disabled" : 0,
									"hidden" : 0,
									"source" : [ "obj-1", 0 ]
								}

							}
, 							{
								"patchline" : 								{
									"destination" : [ "obj-82", 0 ],
									"disabled" : 0,
									"hidden" : 0,
									"source" : [ "obj-75", 0 ]
								}

							}
, 							{
								"patchline" : 								{
									"destination" : [ "obj-75", 1 ],
									"disabled" : 0,
									"hidden" : 0,
									"order" : 1,
									"source" : [ "obj-78", 1 ]
								}

							}
, 							{
								"patchline" : 								{
									"destination" : [ "obj-75", 0 ],
									"disabled" : 0,
									"hidden" : 0,
									"source" : [ "obj-78", 0 ]
								}

							}
, 							{
								"patchline" : 								{
									"destination" : [ "obj-87", 1 ],
									"disabled" : 0,
									"hidden" : 0,
									"order" : 0,
									"source" : [ "obj-78", 1 ]
								}

							}
, 							{
								"patchline" : 								{
									"destination" : [ "obj-87", 0 ],
									"disabled" : 0,
									"hidden" : 0,
									"source" : [ "obj-81", 0 ]
								}

							}
, 							{
								"patchline" : 								{
									"destination" : [ "obj-1", 0 ],
									"disabled" : 0,
									"hidden" : 0,
									"source" : [ "obj-82", 1 ]
								}

							}
, 							{
								"patchline" : 								{
									"destination" : [ "obj-81", 0 ],
									"disabled" : 0,
									"hidden" : 0,
									"source" : [ "obj-82", 0 ]
								}

							}
, 							{
								"patchline" : 								{
									"destination" : [ "obj-94", 0 ],
									"disabled" : 0,
									"hidden" : 0,
									"source" : [ "obj-87", 0 ]
								}

							}
, 							{
								"patchline" : 								{
									"destination" : [ "obj-78", 0 ],
									"disabled" : 0,
									"hidden" : 0,
									"source" : [ "obj-92", 0 ]
								}

							}
, 							{
								"patchline" : 								{
									"destination" : [ "obj-75", 0 ],
									"disabled" : 0,
									"hidden" : 0,
									"source" : [ "obj-93", 0 ]
								}

							}
 ]
					}
,
					"patching_rect" : [ 227.0, 186.5, 91.0, 23.0 ],
					"saved_object_attributes" : 					{
						"description" : "",
						"digest" : "",
						"globalpatchername" : "",
						"style" : "",
						"tags" : ""
					}
,
					"style" : "",
					"text" : "p rnd_in_range"
				}

			}
, 			{
				"box" : 				{
					"id" : "obj-43",
					"maxclass" : "newobj",
					"numinlets" : 4,
					"numoutlets" : 4,
					"outlettype" : [ "", "", "", "" ],
					"patching_rect" : [ 180.0, 246.5, 113.0, 23.0 ],
					"style" : "",
					"text" : "route cc cc2 NRPN"
				}

			}
, 			{
				"box" : 				{
					"id" : "obj-42",
					"maxclass" : "message",
					"numinlets" : 2,
					"numoutlets" : 1,
					"outlettype" : [ "" ],
					"patching_rect" : [ 180.0, 30.0, 41.0, 23.0 ],
					"style" : "",
					"text" : "dump"
				}

			}
, 			{
				"box" : 				{
					"coll_data" : 					{
						"count" : 78,
						"data" : [ 							{
								"key" : 1,
								"value" : [ "oscillator", "cc2", 26, 27, 228, "osc", 1, "fine" ]
							}
, 							{
								"key" : 2,
								"value" : [ "oscillator", "cc", 70, 63, 66, "osc", 1, "range" ]
							}
, 							{
								"key" : 3,
								"value" : [ "oscillator", "cc2", 27, 0, 255, "osc", 1, "coarse" ]
							}
, 							{
								"key" : 4,
								"value" : [ "oscillator", "NRPN", 72, 0, 3, "osc", 1, "waveform" ]
							}
, 							{
								"key" : 5,
								"value" : [ "oscillator", "cc", 71, 0, 127, "osc", 1, "mod", "env", "depth" ]
							}
, 							{
								"key" : 6,
								"value" : [ "oscillator", "cc2", 28, 0, 255, "osc", 1, "LFO", 1, "depth" ]
							}
, 							{
								"key" : 7,
								"value" : [ "oscillator", "cc", 72, 0, 127, "osc", 1, "mod", "env", "PWM" ]
							}
, 							{
								"key" : 8,
								"value" : [ "oscillator", "cc", 73, 0, 127, "osc", 1, "LFO", 2, "PWM" ]
							}
, 							{
								"key" : 9,
								"value" : [ "oscillator", "cc", 74, 0, 127, "osc", 1, "PW" ]
							}
, 							{
								"key" : 10,
								"value" : [ "oscillator", "cc2", 29, 27, 228, "osc", 2, "fine" ]
							}
, 							{
								"key" : 11,
								"value" : [ "oscillator", "cc", 75, 63, 66, "osc", 2, "range" ]
							}
, 							{
								"key" : 12,
								"value" : [ "oscillator", "cc2", 30, 0, 255, "osc", 2, "coarse" ]
							}
, 							{
								"key" : 13,
								"value" : [ "oscillator", "NRPN", 82, 0, 3, "osc", 2, "waveform" ]
							}
, 							{
								"key" : 14,
								"value" : [ "oscillator", "cc", 76, 0, 127, "osc", 2, "mod", "env", "depth" ]
							}
, 							{
								"key" : 15,
								"value" : [ "oscillator", "cc2", 31, 0, 255, "osc", 2, "LFO", 1, "depth" ]
							}
, 							{
								"key" : 16,
								"value" : [ "oscillator", "cc", 77, 0, 127, "osc", 2, "mod", "env", "PWM" ]
							}
, 							{
								"key" : 17,
								"value" : [ "oscillator", "cc", 78, 0, 127, "osc", 2, "LFO", 2, "PWM" ]
							}
, 							{
								"key" : 18,
								"value" : [ "oscillator", "cc", 79, 0, 127, "osc", 2, "PW" ]
							}
, 							{
								"key" : 19,
								"value" : [ "oscillator", "cc", 81, 62, 63, "sub", "osc", "oct" ]
							}
, 							{
								"key" : 20,
								"value" : [ "oscillator", "cc", 80, 0, 2, "sub", "osc", "wave" ]
							}
, 							{
								"key" : 21,
								"value" : [ "oscillator", "cc", 5, 0, 127, "glide" ]
							}
, 							{
								"key" : 22,
								"value" : [ "oscillator", "cc", 107, 40, 88, "bend", "amount" ]
							}
, 							{
								"key" : 23,
								"value" : [ "oscillator", "cc", 110, 0, 1, "osc", "1-2", "sync" ]
							}
, 							{
								"key" : 24,
								"value" : [ "mixer", "cc2", 20, 0, 255, "osc", 1, "level" ]
							}
, 							{
								"key" : 25,
								"value" : [ "mixer", "cc2", 21, 0, 255, "osc", 2, "level" ]
							}
, 							{
								"key" : 26,
								"value" : [ "mixer", "cc2", 22, 0, 255, "sub", "osc", "level" ]
							}
, 							{
								"key" : 27,
								"value" : [ "mixer", "cc2", 23, 0, 255, "noise", "level" ]
							}
, 							{
								"key" : 28,
								"value" : [ "mixer", "cc2", 24, 0, 255, "ring", "mod", "level" ]
							}
, 							{
								"key" : 29,
								"value" : [ "mixer", "cc2", 25, 0, 255, "ext", "signal", "level" ]
							}
, 							{
								"key" : 30,
								"value" : [ "filter", "cc", 83, 0, 1, "type" ]
							}
, 							{
								"key" : 31,
								"value" : [ "filter", "cc", 106, 0, 1, "slope" ]
							}
, 							{
								"key" : 32,
								"value" : [ "filter", "cc", 84, 0, 2, "shape" ]
							}
, 							{
								"key" : 33,
								"value" : [ "filter", "cc2", 16, 0, 255, "cutoff" ]
							}
, 							{
								"key" : 34,
								"value" : [ "filter", "cc", 82, 0, 127, "resonance" ]
							}
, 							{
								"key" : 35,
								"value" : [ "filter", "cc", 85, 0, 127, "mod", "env", "depth" ]
							}
, 							{
								"key" : 36,
								"value" : [ "filter", "cc2", 17, 0, 255, "LFO", 2, "depth" ]
							}
, 							{
								"key" : 37,
								"value" : [ "filter", "cc", 114, 0, 127, "overdrive" ]
							}
, 							{
								"key" : 38,
								"value" : [ "filter", "cc", 115, 0, 127, "osc", "filter", "mod" ]
							}
, 							{
								"key" : 39,
								"value" : [ "LFO", "cc2", 18, 0, 255, "LFO", 1, "speed" ]
							}
, 							{
								"key" : 40,
								"value" : [ "LFO", "cc", 86, 0, 127, "LFO", 1, "delay" ]
							}
, 							{
								"key" : 41,
								"value" : [ "LFO", "cc2", 19, 0, 255, "LFO", 2, "speed" ]
							}
, 							{
								"key" : 42,
								"value" : [ "LFO", "cc", 87, 0, 127, "LFO", 2, "delay" ]
							}
, 							{
								"key" : 43,
								"value" : [ "LFO", "cc", 88, 0, 3, "LFO", 1, "wave" ]
							}
, 							{
								"key" : 44,
								"value" : [ "LFO", "cc", 89, 0, 3, "LFO", 2, "wave" ]
							}
, 							{
								"key" : 45,
								"value" : [ "LFO", "NRPN", 88, 0, 1, "LFO", 1, "sync" ]
							}
, 							{
								"key" : 46,
								"value" : [ "LFO", "NRPN", 92, 0, 1, "LFO", 2, "sync" ]
							}
, 							{
								"key" : 47,
								"value" : [ "LFO", "NRPN", 89, 0, 1, "key", "sync", "LFO", 1 ]
							}
, 							{
								"key" : 48,
								"value" : [ "LFO", "NRPN", 93, 0, 1, "key", "sync", "LFO", 2 ]
							}
, 							{
								"key" : 49,
								"value" : [ "LFO", "NRPN", 86, 0, 127, "slew", "LFO", 1 ]
							}
, 							{
								"key" : 50,
								"value" : [ "LFO", "NRPN", 90, 0, 127, "slew", "LFO", 2 ]
							}
, 							{
								"key" : 51,
								"value" : [ "envelope", "cc", 90, 0, 127, "amp", "env", "attack" ]
							}
, 							{
								"key" : 52,
								"value" : [ "envelope", "cc", 91, 0, 127, "amp", "env", "decay" ]
							}
, 							{
								"key" : 53,
								"value" : [ "envelope", "cc", 92, 0, 127, "amp", "env", "sustain" ]
							}
, 							{
								"key" : 54,
								"value" : [ "envelope", "cc", 93, 0, 127, "amp", "env", "release" ]
							}
, 							{
								"key" : 55,
								"value" : [ "envelope", "NRPN", 73, 0, 2, "amp", "env", "triggering" ]
							}
, 							{
								"key" : 56,
								"value" : [ "envelope", "cc", 112, 0, 127, "amp", "env", "velocity" ]
							}
, 							{
								"key" : 57,
								"value" : [ "envelope", "cc", 102, 0, 127, "mod", "env", "attack" ]
							}
, 							{
								"key" : 58,
								"value" : [ "envelope", "cc", 103, 0, 127, "mod", "env", "decay" ]
							}
, 							{
								"key" : 59,
								"value" : [ "envelope", "cc", 104, 0, 127, "mod", "env", "sustain" ]
							}
, 							{
								"key" : 60,
								"value" : [ "envelope", "cc", 105, 0, 127, "mod", "env", "release" ]
							}
, 							{
								"key" : 61,
								"value" : [ "envelope", "NRPN", 105, 0, 2, "mod", "env", "triggering" ]
							}
, 							{
								"key" : 62,
								"value" : [ "envelope", "cc", 113, 0, 127, "mod", "env", "velocity" ]
							}
, 							{
								"key" : 63,
								"value" : [ "distortion", "cc", 94, 0, 127, "distortion" ]
							}
, 							{
								"key" : 64,
								"value" : [ "arp", "cc", 108, 0, 1, "on" ]
							}
, 							{
								"key" : 65,
								"value" : [ "arp", "cc", 109, 0, 1, "latch" ]
							}
, 							{
								"key" : 66,
								"value" : [ "arp", "cc", 119, 0, 31, "rhythm" ]
							}
, 							{
								"key" : 67,
								"value" : [ "arp", "cc", 118, 0, 5, "note", "mode" ]
							}
, 							{
								"key" : 68,
								"value" : [ "arp", "cc", 111, 1, 4, "octaves" ]
							}
, 							{
								"key" : 69,
								"value" : [ "arp", "cc", 116, 3, 97, "swing" ]
							}
, 							{
								"key" : 70,
								"value" : [ "arp", "NRPN", 106, 0, 1, "seq", "retrigger" ]
							}
, 							{
								"key" : 71,
								"value" : [ "modulation", "NRPN", 94, 0, 127, "MW", "filter", "freq" ]
							}
, 							{
								"key" : 72,
								"value" : [ "modulation", "NRPN", 71, 0, 127, "MW", "LFO", 2, "to", "filter", "freq" ]
							}
, 							{
								"key" : 73,
								"value" : [ "modulation", "NRPN", 70, 0, 127, "MW", "LFO", 1, "to", "osc", "pitch" ]
							}
, 							{
								"key" : 74,
								"value" : [ "modulation", "NRPN", 78, 0, 127, "MW", "osc", 2, "pitch" ]
							}
, 							{
								"key" : 75,
								"value" : [ "modulation", "NRPN", 74, 0, 127, "AT", "filter", "freq" ]
							}
, 							{
								"key" : 76,
								"value" : [ "modulation", "NRPN", 75, 0, 127, "AT", "LFO", 1, "to", "osc", "pitch" ]
							}
, 							{
								"key" : 77,
								"value" : [ "modulation", "NRPN", 76, 0, 127, "AT", "LFO", 2, "speed" ]
							}
, 							{
								"key" : 78,
								"value" : [ "VCA", "cc", 95, 0, 127, "limit" ]
							}
 ]
					}
,
					"id" : "obj-40",
					"maxclass" : "newobj",
					"numinlets" : 1,
					"numoutlets" : 4,
					"outlettype" : [ "", "", "", "" ],
					"patching_rect" : [ 180.0, 75.0, 144.0, 23.0 ],
					"saved_object_attributes" : 					{
						"embed" : 1
					}
,
					"style" : "",
					"text" : "coll allparams @embed 1"
				}

			}
, 			{
				"box" : 				{
					"id" : "obj-32",
					"maxclass" : "newobj",
					"numinlets" : 1,
					"numoutlets" : 1,
					"outlettype" : [ "" ],
					"patcher" : 					{
						"fileversion" : 1,
						"appversion" : 						{
							"major" : 7,
							"minor" : 3,
							"revision" : 3,
							"architecture" : "x64",
							"modernui" : 1
						}
,
						"rect" : [ 59.0, 104.0, 640.0, 480.0 ],
						"bglocked" : 0,
						"openinpresentation" : 0,
						"default_fontsize" : 12.0,
						"default_fontface" : 0,
						"default_fontname" : "Arial",
						"gridonopen" : 1,
						"gridsize" : [ 15.0, 15.0 ],
						"gridsnaponopen" : 1,
						"objectsnaponopen" : 1,
						"statusbarvisible" : 2,
						"toolbarvisible" : 1,
						"lefttoolbarpinned" : 0,
						"toptoolbarpinned" : 0,
						"righttoolbarpinned" : 0,
						"bottomtoolbarpinned" : 0,
						"toolbars_unpinned_last_save" : 0,
						"tallnewobj" : 0,
						"boxanimatetime" : 200,
						"enablehscroll" : 1,
						"enablevscroll" : 1,
						"devicewidth" : 0.0,
						"description" : "",
						"digest" : "",
						"tags" : "",
						"style" : "",
						"subpatcher_template" : "",
						"boxes" : [ 							{
								"box" : 								{
									"id" : "obj-4",
									"maxclass" : "newobj",
									"numinlets" : 3,
									"numoutlets" : 3,
									"outlettype" : [ "", "", "" ],
									"patching_rect" : [ 257.0, 299.0, 53.0, 22.0 ],
									"style" : "",
									"text" : "buddy 3"
								}

							}
, 							{
								"box" : 								{
									"id" : "obj-1",
									"maxclass" : "newobj",
									"numinlets" : 1,
									"numoutlets" : 2,
									"outlettype" : [ "int", "int" ],
									"patching_rect" : [ 257.0, 62.0, 69.0, 22.0 ],
									"style" : "",
									"text" : "unpack 0 0"
								}

							}
, 							{
								"box" : 								{
									"fontname" : "Arial",
									"fontsize" : 12.0,
									"id" : "obj-2",
									"maxclass" : "comment",
									"numinlets" : 1,
									"numoutlets" : 0,
									"patching_rect" : [ 312.0, 359.0, 105.0, 20.0 ],
									"style" : "",
									"text" : "MIDI CC Output"
								}

							}
, 							{
								"box" : 								{
									"fontname" : "Arial",
									"fontsize" : 12.0,
									"id" : "obj-48",
									"linecount" : 2,
									"maxclass" : "comment",
									"numinlets" : 1,
									"numoutlets" : 0,
									"patching_rect" : [ 312.0, 299.0, 162.0, 33.0 ],
									"style" : "",
									"text" : "Ensure correct order of CC messages: right to left. <---"
								}

							}
, 							{
								"box" : 								{
									"fontname" : "Arial",
									"fontsize" : 12.0,
									"id" : "obj-50",
									"maxclass" : "comment",
									"numinlets" : 1,
									"numoutlets" : 0,
									"patching_rect" : [ 420.0, 164.0, 48.0, 20.0 ],
									"style" : "",
									"text" : "Value"
								}

							}
, 							{
								"box" : 								{
									"fontname" : "Arial",
									"fontsize" : 12.0,
									"id" : "obj-42",
									"maxclass" : "newobj",
									"numinlets" : 1,
									"numoutlets" : 1,
									"outlettype" : [ "" ],
									"patching_rect" : [ 345.0, 164.0, 65.0, 22.0 ],
									"style" : "",
									"text" : "prepend 6"
								}

							}
, 							{
								"box" : 								{
									"fontname" : "Arial",
									"fontsize" : 12.0,
									"id" : "obj-43",
									"maxclass" : "newobj",
									"numinlets" : 2,
									"numoutlets" : 1,
									"outlettype" : [ "int" ],
									"patching_rect" : [ 345.0, 134.0, 45.0, 22.0 ],
									"style" : "",
									"text" : "% 128"
								}

							}
, 							{
								"box" : 								{
									"fontname" : "Arial",
									"fontsize" : 12.0,
									"id" : "obj-51",
									"maxclass" : "comment",
									"numinlets" : 1,
									"numoutlets" : 0,
									"patching_rect" : [ 330.0, 62.0, 139.5, 20.0 ],
									"style" : "",
									"text" : "NRPN Controller Value"
								}

							}
, 							{
								"box" : 								{
									"fontname" : "Arial",
									"fontsize" : 12.0,
									"id" : "obj-35",
									"maxclass" : "comment",
									"numinlets" : 1,
									"numoutlets" : 0,
									"patching_rect" : [ 95.0, 62.0, 150.0, 20.0 ],
									"style" : "",
									"text" : "NRPN Controller Number"
								}

							}
, 							{
								"box" : 								{
									"fontname" : "Arial",
									"fontsize" : 12.0,
									"id" : "obj-25",
									"maxclass" : "comment",
									"numinlets" : 1,
									"numoutlets" : 0,
									"patching_rect" : [ 215.0, 224.0, 135.0, 20.0 ],
									"style" : "",
									"text" : "Least Significant Byte"
								}

							}
, 							{
								"box" : 								{
									"fontname" : "Arial",
									"fontsize" : 12.0,
									"id" : "obj-24",
									"maxclass" : "newobj",
									"numinlets" : 1,
									"numoutlets" : 1,
									"outlettype" : [ "" ],
									"patching_rect" : [ 138.0, 224.0, 71.0, 22.0 ],
									"style" : "",
									"text" : "prepend 98"
								}

							}
, 							{
								"box" : 								{
									"fontname" : "Arial",
									"fontsize" : 12.0,
									"id" : "obj-23",
									"maxclass" : "comment",
									"numinlets" : 1,
									"numoutlets" : 0,
									"patching_rect" : [ 137.5, 166.0, 135.0, 20.0 ],
									"style" : "",
									"text" : "Most Significant Byte"
								}

							}
, 							{
								"box" : 								{
									"fontname" : "Arial",
									"fontsize" : 12.0,
									"id" : "obj-21",
									"maxclass" : "newobj",
									"numinlets" : 1,
									"numoutlets" : 1,
									"outlettype" : [ "" ],
									"patching_rect" : [ 60.0, 164.0, 71.0, 22.0 ],
									"style" : "",
									"text" : "prepend 99"
								}

							}
, 							{
								"box" : 								{
									"fontname" : "Arial",
									"fontsize" : 12.0,
									"id" : "obj-20",
									"maxclass" : "newobj",
									"numinlets" : 2,
									"numoutlets" : 1,
									"outlettype" : [ "int" ],
									"patching_rect" : [ 60.0, 134.0, 37.0, 22.0 ],
									"style" : "",
									"text" : "/ 128"
								}

							}
, 							{
								"box" : 								{
									"fontname" : "Arial",
									"fontsize" : 12.0,
									"id" : "obj-53",
									"maxclass" : "newobj",
									"numinlets" : 2,
									"numoutlets" : 1,
									"outlettype" : [ "int" ],
									"patching_rect" : [ 138.0, 194.0, 45.0, 22.0 ],
									"style" : "",
									"text" : "% 128"
								}

							}
, 							{
								"box" : 								{
									"comment" : "",
									"id" : "obj-54",
									"index" : 1,
									"maxclass" : "inlet",
									"numinlets" : 0,
									"numoutlets" : 1,
									"outlettype" : [ "" ],
									"patching_rect" : [ 257.0, 26.0, 30.0, 30.0 ],
									"style" : ""
								}

							}
, 							{
								"box" : 								{
									"comment" : "",
									"id" : "obj-59",
									"index" : 1,
									"maxclass" : "outlet",
									"numinlets" : 1,
									"numoutlets" : 0,
									"patching_rect" : [ 257.0, 359.0, 30.0, 30.0 ],
									"style" : ""
								}

							}
 ],
						"lines" : [ 							{
								"patchline" : 								{
									"destination" : [ "obj-20", 0 ],
									"disabled" : 0,
									"hidden" : 0,
									"midpoints" : [ 266.5, 108.5, 69.5, 108.5 ],
									"order" : 1,
									"source" : [ "obj-1", 0 ]
								}

							}
, 							{
								"patchline" : 								{
									"destination" : [ "obj-43", 0 ],
									"disabled" : 0,
									"hidden" : 0,
									"midpoints" : [ 316.5, 108.5, 354.5, 108.5 ],
									"source" : [ "obj-1", 1 ]
								}

							}
, 							{
								"patchline" : 								{
									"destination" : [ "obj-53", 0 ],
									"disabled" : 0,
									"hidden" : 0,
									"midpoints" : [ 266.5, 138.5, 147.5, 138.5 ],
									"order" : 0,
									"source" : [ "obj-1", 0 ]
								}

							}
, 							{
								"patchline" : 								{
									"destination" : [ "obj-21", 0 ],
									"disabled" : 0,
									"hidden" : 0,
									"midpoints" : [ 69.5, 159.5, 69.5, 159.5 ],
									"source" : [ "obj-20", 0 ]
								}

							}
, 							{
								"patchline" : 								{
									"destination" : [ "obj-4", 2 ],
									"disabled" : 0,
									"hidden" : 0,
									"midpoints" : [ 69.5, 256.0, 300.5, 256.0 ],
									"source" : [ "obj-21", 0 ]
								}

							}
, 							{
								"patchline" : 								{
									"destination" : [ "obj-4", 1 ],
									"disabled" : 0,
									"hidden" : 0,
									"midpoints" : [ 147.5, 272.0, 283.5, 272.0 ],
									"source" : [ "obj-24", 0 ]
								}

							}
, 							{
								"patchline" : 								{
									"destination" : [ "obj-59", 0 ],
									"disabled" : 0,
									"hidden" : 0,
									"midpoints" : [ 300.5, 339.5, 266.5, 339.5 ],
									"source" : [ "obj-4", 2 ]
								}

							}
, 							{
								"patchline" : 								{
									"destination" : [ "obj-59", 0 ],
									"disabled" : 0,
									"hidden" : 0,
									"midpoints" : [ 283.5, 339.5, 266.5, 339.5 ],
									"source" : [ "obj-4", 1 ]
								}

							}
, 							{
								"patchline" : 								{
									"destination" : [ "obj-59", 0 ],
									"disabled" : 0,
									"hidden" : 0,
									"midpoints" : [ 266.5, 339.5, 266.5, 339.5 ],
									"source" : [ "obj-4", 0 ]
								}

							}
, 							{
								"patchline" : 								{
									"destination" : [ "obj-4", 0 ],
									"disabled" : 0,
									"hidden" : 0,
									"midpoints" : [ 354.5, 248.0, 266.5, 248.0 ],
									"source" : [ "obj-42", 0 ]
								}

							}
, 							{
								"patchline" : 								{
									"destination" : [ "obj-42", 0 ],
									"disabled" : 0,
									"hidden" : 0,
									"midpoints" : [ 354.5, 159.5, 354.5, 159.5 ],
									"source" : [ "obj-43", 0 ]
								}

							}
, 							{
								"patchline" : 								{
									"destination" : [ "obj-24", 0 ],
									"disabled" : 0,
									"hidden" : 0,
									"midpoints" : [ 147.5, 219.5, 147.5, 219.5 ],
									"source" : [ "obj-53", 0 ]
								}

							}
, 							{
								"patchline" : 								{
									"destination" : [ "obj-1", 0 ],
									"disabled" : 0,
									"hidden" : 0,
									"midpoints" : [ 266.5, 58.5, 266.5, 58.5 ],
									"source" : [ "obj-54", 0 ]
								}

							}
 ]
					}
,
					"patching_rect" : [ 261.0, 276.5, 55.0, 23.0 ],
					"saved_object_attributes" : 					{
						"description" : "",
						"digest" : "",
						"globalpatchername" : "",
						"style" : "",
						"tags" : ""
					}
,
					"style" : "",
					"text" : "p NRPN"
				}

			}
, 			{
				"box" : 				{
					"id" : "obj-31",
					"maxclass" : "newobj",
					"numinlets" : 1,
					"numoutlets" : 1,
					"outlettype" : [ "" ],
					"patcher" : 					{
						"fileversion" : 1,
						"appversion" : 						{
							"major" : 7,
							"minor" : 3,
							"revision" : 3,
							"architecture" : "x64",
							"modernui" : 1
						}
,
						"rect" : [ 59.0, 104.0, 640.0, 480.0 ],
						"bglocked" : 0,
						"openinpresentation" : 0,
						"default_fontsize" : 12.0,
						"default_fontface" : 0,
						"default_fontname" : "Arial",
						"gridonopen" : 1,
						"gridsize" : [ 15.0, 15.0 ],
						"gridsnaponopen" : 1,
						"objectsnaponopen" : 1,
						"statusbarvisible" : 2,
						"toolbarvisible" : 1,
						"lefttoolbarpinned" : 0,
						"toptoolbarpinned" : 0,
						"righttoolbarpinned" : 0,
						"bottomtoolbarpinned" : 0,
						"toolbars_unpinned_last_save" : 0,
						"tallnewobj" : 0,
						"boxanimatetime" : 200,
						"enablehscroll" : 1,
						"enablevscroll" : 1,
						"devicewidth" : 0.0,
						"description" : "",
						"digest" : "",
						"tags" : "",
						"style" : "",
						"subpatcher_template" : "",
						"boxes" : [ 							{
								"box" : 								{
									"id" : "obj-1",
									"maxclass" : "newobj",
									"numinlets" : 1,
									"numoutlets" : 2,
									"outlettype" : [ "int", "int" ],
									"patching_rect" : [ 50.0, 65.0, 49.0, 22.0 ],
									"style" : "",
									"text" : "unpack"
								}

							}
, 							{
								"box" : 								{
									"id" : "obj-27",
									"maxclass" : "newobj",
									"numinlets" : 2,
									"numoutlets" : 2,
									"outlettype" : [ "", "" ],
									"patching_rect" : [ 50.0, 325.0, 43.0, 22.0 ],
									"style" : "",
									"text" : "buddy"
								}

							}
, 							{
								"box" : 								{
									"id" : "obj-23",
									"maxclass" : "message",
									"numinlets" : 2,
									"numoutlets" : 1,
									"outlettype" : [ "" ],
									"patching_rect" : [ 125.0, 265.0, 50.0, 22.0 ],
									"style" : "",
									"text" : "set $1"
								}

							}
, 							{
								"box" : 								{
									"id" : "obj-21",
									"maxclass" : "newobj",
									"numinlets" : 2,
									"numoutlets" : 1,
									"outlettype" : [ "int" ],
									"patching_rect" : [ 81.5, 205.0, 34.0, 22.0 ],
									"style" : "",
									"text" : "+ 32"
								}

							}
, 							{
								"box" : 								{
									"id" : "obj-20",
									"maxclass" : "newobj",
									"numinlets" : 1,
									"numoutlets" : 1,
									"outlettype" : [ "" ],
									"patching_rect" : [ 50.0, 295.0, 65.0, 22.0 ],
									"style" : "",
									"text" : "prepend 0"
								}

							}
, 							{
								"box" : 								{
									"id" : "obj-19",
									"maxclass" : "newobj",
									"numinlets" : 1,
									"numoutlets" : 1,
									"outlettype" : [ "" ],
									"patching_rect" : [ 125.0, 295.0, 71.0, 22.0 ],
									"style" : "",
									"text" : "prepend 32"
								}

							}
, 							{
								"box" : 								{
									"id" : "obj-11",
									"maxclass" : "newobj",
									"numinlets" : 2,
									"numoutlets" : 2,
									"outlettype" : [ "", "" ],
									"patching_rect" : [ 125.0, 175.0, 43.0, 22.0 ],
									"style" : "",
									"text" : "buddy"
								}

							}
, 							{
								"box" : 								{
									"id" : "obj-10",
									"maxclass" : "newobj",
									"numinlets" : 2,
									"numoutlets" : 1,
									"outlettype" : [ "" ],
									"patching_rect" : [ 125.0, 205.0, 128.0, 22.0 ],
									"style" : "",
									"text" : "expr int(($f2-$f1)*128)"
								}

							}
, 							{
								"box" : 								{
									"id" : "obj-6",
									"maxclass" : "newobj",
									"numinlets" : 1,
									"numoutlets" : 1,
									"outlettype" : [ "int" ],
									"patching_rect" : [ 102.0, 130.0, 30.0, 22.0 ],
									"style" : "",
									"text" : "abs"
								}

							}
, 							{
								"box" : 								{
									"id" : "obj-3",
									"maxclass" : "newobj",
									"numinlets" : 2,
									"numoutlets" : 1,
									"outlettype" : [ "float" ],
									"patching_rect" : [ 102.0, 100.0, 29.5, 22.0 ],
									"style" : "",
									"text" : "/ 2."
								}

							}
, 							{
								"box" : 								{
									"id" : "obj-22",
									"maxclass" : "message",
									"numinlets" : 2,
									"numoutlets" : 1,
									"outlettype" : [ "" ],
									"patching_rect" : [ 50.0, 265.0, 50.0, 22.0 ],
									"style" : "",
									"text" : "set $1"
								}

							}
, 							{
								"box" : 								{
									"annotation" : "",
									"comment" : "Value",
									"hint" : "",
									"id" : "obj-29",
									"index" : 1,
									"maxclass" : "inlet",
									"numinlets" : 0,
									"numoutlets" : 1,
									"outlettype" : [ "" ],
									"patching_rect" : [ 50.0, 29.0, 30.0, 30.0 ],
									"style" : ""
								}

							}
, 							{
								"box" : 								{
									"comment" : "",
									"id" : "obj-30",
									"index" : 1,
									"maxclass" : "outlet",
									"numinlets" : 1,
									"numoutlets" : 0,
									"patching_rect" : [ 44.0, 407.0, 30.0, 30.0 ],
									"style" : ""
								}

							}
 ],
						"lines" : [ 							{
								"patchline" : 								{
									"destination" : [ "obj-21", 0 ],
									"disabled" : 0,
									"hidden" : 0,
									"order" : 0,
									"source" : [ "obj-1", 0 ]
								}

							}
, 							{
								"patchline" : 								{
									"destination" : [ "obj-22", 0 ],
									"disabled" : 0,
									"hidden" : 0,
									"order" : 1,
									"source" : [ "obj-1", 0 ]
								}

							}
, 							{
								"patchline" : 								{
									"destination" : [ "obj-3", 0 ],
									"disabled" : 0,
									"hidden" : 0,
									"source" : [ "obj-1", 1 ]
								}

							}
, 							{
								"patchline" : 								{
									"destination" : [ "obj-19", 0 ],
									"disabled" : 0,
									"hidden" : 0,
									"source" : [ "obj-10", 0 ]
								}

							}
, 							{
								"patchline" : 								{
									"destination" : [ "obj-10", 1 ],
									"disabled" : 0,
									"hidden" : 0,
									"source" : [ "obj-11", 1 ]
								}

							}
, 							{
								"patchline" : 								{
									"destination" : [ "obj-10", 0 ],
									"disabled" : 0,
									"hidden" : 0,
									"source" : [ "obj-11", 0 ]
								}

							}
, 							{
								"patchline" : 								{
									"destination" : [ "obj-27", 0 ],
									"disabled" : 0,
									"hidden" : 0,
									"source" : [ "obj-19", 0 ]
								}

							}
, 							{
								"patchline" : 								{
									"destination" : [ "obj-27", 1 ],
									"disabled" : 0,
									"hidden" : 0,
									"source" : [ "obj-20", 0 ]
								}

							}
, 							{
								"patchline" : 								{
									"destination" : [ "obj-23", 0 ],
									"disabled" : 0,
									"hidden" : 0,
									"source" : [ "obj-21", 0 ]
								}

							}
, 							{
								"patchline" : 								{
									"destination" : [ "obj-20", 0 ],
									"disabled" : 0,
									"hidden" : 0,
									"source" : [ "obj-22", 0 ]
								}

							}
, 							{
								"patchline" : 								{
									"destination" : [ "obj-19", 0 ],
									"disabled" : 0,
									"hidden" : 0,
									"source" : [ "obj-23", 0 ]
								}

							}
, 							{
								"patchline" : 								{
									"destination" : [ "obj-30", 0 ],
									"disabled" : 0,
									"hidden" : 0,
									"source" : [ "obj-27", 1 ]
								}

							}
, 							{
								"patchline" : 								{
									"destination" : [ "obj-30", 0 ],
									"disabled" : 0,
									"hidden" : 0,
									"source" : [ "obj-27", 0 ]
								}

							}
, 							{
								"patchline" : 								{
									"destination" : [ "obj-1", 0 ],
									"disabled" : 0,
									"hidden" : 0,
									"source" : [ "obj-29", 0 ]
								}

							}
, 							{
								"patchline" : 								{
									"destination" : [ "obj-11", 1 ],
									"disabled" : 0,
									"hidden" : 0,
									"order" : 0,
									"source" : [ "obj-3", 0 ]
								}

							}
, 							{
								"patchline" : 								{
									"destination" : [ "obj-6", 0 ],
									"disabled" : 0,
									"hidden" : 0,
									"order" : 1,
									"source" : [ "obj-3", 0 ]
								}

							}
, 							{
								"patchline" : 								{
									"destination" : [ "obj-11", 0 ],
									"disabled" : 0,
									"hidden" : 0,
									"order" : 0,
									"source" : [ "obj-6", 0 ]
								}

							}
, 							{
								"patchline" : 								{
									"destination" : [ "obj-20", 0 ],
									"disabled" : 0,
									"hidden" : 0,
									"order" : 1,
									"source" : [ "obj-6", 0 ]
								}

							}
 ]
					}
,
					"patching_rect" : [ 201.0, 276.5, 45.0, 23.0 ],
					"saved_object_attributes" : 					{
						"description" : "",
						"digest" : "",
						"globalpatchername" : "",
						"style" : "",
						"tags" : ""
					}
,
					"style" : "",
					"text" : "p CC2"
				}

			}
, 			{
				"box" : 				{
					"id" : "obj-18",
					"maxclass" : "newobj",
					"numinlets" : 1,
					"numoutlets" : 1,
					"outlettype" : [ "bang" ],
					"patching_rect" : [ 30.0, 156.5, 60.0, 23.0 ],
					"style" : "",
					"text" : "loadbang"
				}

			}
, 			{
				"box" : 				{
					"bgfillcolor_angle" : 270.0,
					"bgfillcolor_autogradient" : 0,
					"bgfillcolor_color" : [ 0.290196, 0.309804, 0.301961, 1.0 ],
					"bgfillcolor_color1" : [ 0.239216, 0.254902, 0.278431, 0.0 ],
					"bgfillcolor_color2" : [ 0.0, 0.0, 0.0, 0.0 ],
					"bgfillcolor_proportion" : 0.39,
					"bgfillcolor_type" : "gradient",
					"color" : [ 1.0, 1.0, 1.0, 1.0 ],
					"id" : "obj-17",
					"items" : [ "AU DLS Synth 1", ",", "Pro40 MIDI", ",", "from Max 1", ",", "from Max 2" ],
					"maxclass" : "umenu",
					"numinlets" : 1,
					"numoutlets" : 3,
					"outlettype" : [ "int", "", "" ],
					"parameter_enable" : 0,
					"patching_rect" : [ 30.0, 216.5, 100.0, 23.0 ],
					"presentation" : 1,
					"presentation_rect" : [ 120.0, 209.729156, 180.0, 23.0 ],
					"style" : "",
					"textcolor" : [ 1.0, 1.0, 1.0, 1.0 ]
				}

			}
, 			{
				"box" : 				{
					"id" : "obj-16",
					"maxclass" : "newobj",
					"numinlets" : 2,
					"numoutlets" : 1,
					"outlettype" : [ "" ],
					"patching_rect" : [ 30.0, 186.5, 52.0, 23.0 ],
					"style" : "",
					"text" : "midiinfo"
				}

			}
, 			{
				"box" : 				{
					"id" : "obj-15",
					"maxclass" : "newobj",
					"numinlets" : 1,
					"numoutlets" : 0,
					"patching_rect" : [ 180.0, 336.5, 49.0, 23.0 ],
					"style" : "",
					"text" : "midiout"
				}

			}
, 			{
				"box" : 				{
					"id" : "obj-14",
					"maxclass" : "newobj",
					"numinlets" : 7,
					"numoutlets" : 2,
					"outlettype" : [ "int", "" ],
					"patching_rect" : [ 180.0, 306.5, 82.0, 23.0 ],
					"style" : "",
					"text" : "midiformat"
				}

			}
, 			{
				"box" : 				{
					"id" : "obj-1",
					"maxclass" : "message",
					"numinlets" : 2,
					"numoutlets" : 1,
					"outlettype" : [ "" ],
					"patching_rect" : [ 224.0, 30.0, 50.0, 23.0 ],
					"style" : "",
					"text" : "open"
				}

			}
 ],
		"lines" : [ 			{
				"patchline" : 				{
					"destination" : [ "obj-40", 0 ],
					"disabled" : 0,
					"hidden" : 0,
					"source" : [ "obj-1", 0 ]
				}

			}
, 			{
				"patchline" : 				{
					"destination" : [ "obj-15", 0 ],
					"disabled" : 0,
					"hidden" : 0,
					"source" : [ "obj-14", 0 ]
				}

			}
, 			{
				"patchline" : 				{
					"destination" : [ "obj-17", 0 ],
					"disabled" : 0,
					"hidden" : 0,
					"source" : [ "obj-16", 0 ]
				}

			}
, 			{
				"patchline" : 				{
					"destination" : [ "obj-15", 0 ],
					"disabled" : 0,
					"hidden" : 0,
					"source" : [ "obj-17", 1 ]
				}

			}
, 			{
				"patchline" : 				{
					"destination" : [ "obj-16", 0 ],
					"disabled" : 0,
					"hidden" : 0,
					"source" : [ "obj-18", 0 ]
				}

			}
, 			{
				"patchline" : 				{
					"destination" : [ "obj-30", 1 ],
					"disabled" : 0,
					"hidden" : 0,
					"source" : [ "obj-2", 0 ]
				}

			}
, 			{
				"patchline" : 				{
					"destination" : [ "obj-47", 0 ],
					"disabled" : 0,
					"hidden" : 0,
					"source" : [ "obj-30", 0 ]
				}

			}
, 			{
				"patchline" : 				{
					"destination" : [ "obj-14", 2 ],
					"disabled" : 0,
					"hidden" : 0,
					"source" : [ "obj-31", 0 ]
				}

			}
, 			{
				"patchline" : 				{
					"destination" : [ "obj-14", 2 ],
					"disabled" : 0,
					"hidden" : 0,
					"source" : [ "obj-32", 0 ]
				}

			}
, 			{
				"patchline" : 				{
					"destination" : [ "obj-30", 0 ],
					"disabled" : 0,
					"hidden" : 0,
					"source" : [ "obj-40", 0 ]
				}

			}
, 			{
				"patchline" : 				{
					"destination" : [ "obj-40", 0 ],
					"disabled" : 0,
					"hidden" : 0,
					"source" : [ "obj-42", 0 ]
				}

			}
, 			{
				"patchline" : 				{
					"destination" : [ "obj-14", 2 ],
					"disabled" : 0,
					"hidden" : 0,
					"midpoints" : [ 189.5, 302.5, 210.5, 302.5 ],
					"source" : [ "obj-43", 0 ]
				}

			}
, 			{
				"patchline" : 				{
					"destination" : [ "obj-31", 0 ],
					"disabled" : 0,
					"hidden" : 0,
					"source" : [ "obj-43", 1 ]
				}

			}
, 			{
				"patchline" : 				{
					"destination" : [ "obj-32", 0 ],
					"disabled" : 0,
					"hidden" : 0,
					"source" : [ "obj-43", 2 ]
				}

			}
, 			{
				"patchline" : 				{
					"destination" : [ "obj-53", 1 ],
					"disabled" : 0,
					"hidden" : 0,
					"source" : [ "obj-47", 1 ]
				}

			}
, 			{
				"patchline" : 				{
					"destination" : [ "obj-53", 0 ],
					"disabled" : 0,
					"hidden" : 0,
					"source" : [ "obj-47", 0 ]
				}

			}
, 			{
				"patchline" : 				{
					"destination" : [ "obj-95", 1 ],
					"disabled" : 0,
					"hidden" : 0,
					"midpoints" : [ 260.0, 182.0, 308.5, 182.0 ],
					"source" : [ "obj-47", 3 ]
				}

			}
, 			{
				"patchline" : 				{
					"destination" : [ "obj-95", 0 ],
					"disabled" : 0,
					"hidden" : 0,
					"source" : [ "obj-47", 2 ]
				}

			}
, 			{
				"patchline" : 				{
					"destination" : [ "obj-43", 0 ],
					"disabled" : 0,
					"hidden" : 0,
					"source" : [ "obj-53", 0 ]
				}

			}
, 			{
				"patchline" : 				{
					"destination" : [ "obj-42", 0 ],
					"disabled" : 0,
					"hidden" : 0,
					"midpoints" : [ 537.0, 189.0, 336.0, 189.0, 336.0, 15.0, 189.5, 15.0 ],
					"source" : [ "obj-7", 0 ]
				}

			}
, 			{
				"patchline" : 				{
					"destination" : [ "obj-53", 2 ],
					"disabled" : 0,
					"hidden" : 0,
					"source" : [ "obj-95", 0 ]
				}

			}
 ],
		"dependency_cache" : [ 			{
				"name" : "2-BSII-Logo.png",
				"bootpath" : "~/Desktop",
				"type" : "PNG ",
				"implicit" : 1
			}
 ],
		"autosave" : 0,
		"textcolor" : [ 1.0, 0.978723, 0.978723, 1.0 ]
	}

}
